<svg xmlns="http://www.w3.org/2000/svg" viewBox="0 0 64 64" role="img" aria-label="RY logo">
  <rect width="64" height="64" rx="12" fill="white"/>
  <path d="M22.40 25.53L17.78 25.53L17.78 34.78L22.40 34.78Q23.36 34.78 24.19 34.42Q25.03 34.05 25.66 33.43Q26.29 32.80 26.65 31.95Q27.01 31.11 27.01 30.16L27.01 30.16Q27.01 29.20 26.65 28.36Q26.29 27.51 25.66 26.88Q25.03 26.26 24.19 25.89Q23.36 25.53 22.40 25.53L22.40 25.53ZM17.78 39.39L17.78 44.01L13.16 44.01L13.16 20.91L22.40 20.91Q23.68 20.91 24.85 21.24Q26.03 21.57 27.05 22.17Q28.08 22.78 28.92 23.62Q29.77 24.47 30.37 25.50Q30.98 26.53 31.31 27.71Q31.64 28.88 31.64 30.16L31.64 30.16Q31.64 31.35 31.34 32.48Q31.04 33.60 30.49 34.62Q29.93 35.63 29.12 36.49Q28.32 37.34 27.32 37.97L27.32 37.97L29.88 44.01L24.97 44.01L22.95 39.36L17.78 39.39ZM45.06 36.78L45.06 44.01L40.45 44.01L40.45 36.78Q38.92 36.39 37.64 35.54Q36.36 34.68 35.44 33.50Q34.52 32.31 34.01 30.87Q33.51 29.43 33.51 27.83L33.51 27.83L33.51 20.91L38.13 20.91L38.13 27.83Q38.13 28.79 38.49 29.63Q38.86 30.48 39.48 31.11Q40.11 31.73 40.96 32.10Q41.80 32.46 42.76 32.46L42.76 32.46Q43.71 32.46 44.55 32.10Q45.40 31.73 46.03 31.11Q46.66 30.48 47.02 29.63Q47.38 28.79 47.38 27.83L47.38 27.83L47.38 20.91L51.99 20.91L51.99 27.83Q51.99 29.43 51.48 30.87Q50.97 32.31 50.05 33.50Q49.14 34.68 47.86 35.54Q46.59 36.39 45.06 36.78L45.06 36.78Z" fill="#6366f1" stroke="#6366f1" stroke-width="0.35"/>
</svg>
